
<!DOCTYPE svg PUBLIC "-//W3C//DTD SVG 20010904//EN" "http://www.w3.org/TR/2001/REC-SVG-20010904/DTD/svg10.dtd">
<svg version="1.0" xmlns="http://www.w3.org/2000/svg" width="400px" height="400px" viewBox="0 0 2500 2500" preserveAspectRatio="xMidYMid meet">
<g id="layer101" fill="#75112e" stroke="none">
 <path d="M1415 2374 c-33 -8 -63 -18 -68 -23 -4 -4 18 -17 50 -29 153 -56 267 -177 281 -297 4 -41 10 -48 72 -95 117 -87 214 -211 268 -342 15 -37 32 -66 37 -65 6 2 25 40 43 85 134 333 -35 681 -373 767 -74 19 -229 18 -310 -1z"/>
 <path d="M464 1806 c-263 -85 -454 -340 -454 -606 0 -144 49 -264 152 -373 l59 -62 -8 45 c-14 82 -9 152 17 205 27 55 100 131 155 161 l35 19 0 90 c0 187 53 327 199 526 13 18 11 19 -35 19 -27 -1 -81 -11 -120 -24z"/>
 <path d="M2145 680 c-3 -11 -24 -43 -47 -71 -80 -102 -186 -123 -318 -63 l-61 27 -69 -37 c-150 -81 -336 -119 -481 -99 -41 6 -76 8 -79 6 -3 -3 49 -57 115 -121 131 -127 224 -186 340 -217 167 -43 329 6 460 139 107 109 164 247 165 399 0 56 -13 76 -25 37z"/>
 </g>
<g id="layer102" fill="#cc2e55" stroke="none">
 <path d="M730 2396 c-161 -45 -316 -200 -364 -364 -19 -66 -31 -172 -20 -172 5 1 19 23 32 51 35 73 79 103 162 107 59 4 78 0 153 -31 75 -30 88 -33 105 -21 47 32 165 85 238 105 49 14 124 25 199 29 l120 6 -96 95 c-105 103 -178 152 -278 186 -75 26 -178 29 -251 9z"/>
 <path d="M2298 1594 c3 -73 0 -99 -17 -145 -28 -74 -79 -131 -139 -157 -55 -24 -62 -35 -62 -95 0 -111 -64 -288 -145 -404 l-46 -66 58 6 c157 17 278 71 374 166 202 202 213 526 25 728 l-52 56 4 -89z"/>
 <path d="M443 903 c-36 -96 -45 -144 -45 -238 0 -260 143 -462 386 -547 68 -23 97 -28 182 -28 101 0 181 16 218 43 17 12 13 13 -36 9 -76 -6 -141 24 -211 97 -75 79 -119 167 -125 254 -5 66 -6 69 -46 97 -99 68 -209 198 -261 308 -16 34 -32 62 -35 62 -3 0 -15 -26 -27 -57z"/>
 </g>
<g id="layer103" fill="#cc2e55" stroke="none">
 <path d="M775 1558 c-11 -6 -23 -16 -27 -22 -9 -13 -11 -568 -2 -591 16 -41 47 -45 394 -45 262 0 347 3 407 16 128 26 226 87 252 157 7 17 11 117 11 246 0 186 -2 220 -16 232 -25 21 -116 24 -152 5 l-32 -17 0 -214 c0 -209 -1 -215 -22 -235 -33 -31 -84 -50 -150 -57 l-58 -6 0 251 c0 214 -2 253 -16 266 -22 22 -57 29 -112 23 -81 -9 -82 -11 -82 -293 l0 -244 -115 0 -115 0 0 258 0 259 -25 11 c-33 15 -114 15 -140 0z"/>
</g>
</svg>
