<!DOCTYPE svg PUBLIC "-//W3C//DTD SVG 20010904//EN" "http://www.w3.org/TR/2001/REC-SVG-20010904/DTD/svg10.dtd">
<svg version="1.0" xmlns="http://www.w3.org/2000/svg" width="350px" height="350px" viewBox="0 0 6180 6300" preserveAspectRatio="xMidYMid meet">
<g id="layer101" fill="#cc2e55" stroke="none">
 <path d="M82 6063 c194 -881 292 -1694 339 -2823 14 -338 6 -1088 -16 -1470 -27 -470 -73 -933 -141 -1403 -25 -175 -44 -320 -43 -321 2 -2 81 9 174 25 425 71 1031 110 1398 90 117 -7 263 -19 326 -27 62 -8 115 -13 116 -12 1 2 24 116 50 253 165 872 356 1611 623 2405 52 153 214 592 218 587 7 -8 134 -432 175 -586 233 -865 375 -1676 438 -2503 10 -125 19 -230 22 -232 2 -2 83 9 179 25 244 41 495 66 845 85 256 15 339 16 565 6 146 -7 321 -19 389 -27 68 -9 126 -14 128 -11 3 2 -5 51 -16 108 -95 474 -161 1313 -161 2053 0 1342 141 2680 389 3680 27 110 48 202 45 204 -2 2 -68 -1 -146 -8 -546 -47 -1431 -8 -2126 95 -91 13 -172 24 -179 24 -9 0 -5 -17 16 -57 162 -323 297 -1211 351 -2308 14 -294 15 -281 -16 -215 -223 476 -547 1292 -875 2202 -57 158 -106 288 -109 288 -3 0 -65 -166 -139 -368 -329 -899 -511 -1371 -724 -1875 -67 -159 -123 -283 -125 -277 -10 28 50 708 89 1025 65 526 122 852 226 1278 25 103 42 191 39 194 -3 4 -61 1 -129 -6 -501 -50 -1447 -4 -2109 104 -152 25 -142 49 -86 -202z"/>
 </g>

</svg>
